<?xml version="1.0" encoding="utf-8"?>
<!-- Generator: Adobe Illustrator 25.4.1, SVG Export Plug-In . SVG Version: 6.00 Build 0)  -->
<svg version="1.1" id="download" xmlns="http://www.w3.org/2000/svg" xmlns:xlink="http://www.w3.org/1999/xlink" x="0px" y="0px"
	 viewBox="0 0 32 32" style="enable-background:new 0 0 32 32;" xml:space="preserve">
<g>
	<path d="M29.2910042,21.6909561C30.3164024,21.6909561,31,20.8364563,31,19.9819584v-0.7861366
		c0-1.0253963-0.8544979-1.7089939-1.7089958-1.7089939H12.201045c-0.8544979,0-1.7089958,0.6835976-1.7089958,1.7089939v0.7861366
		c0,0.8544979,0.6835985,1.7089977,1.7089958,1.7089977H29.2910042z"/>
	<path d="M6.4687872,21.6909561c1.0253978,0,1.7089958-0.8544998,1.7089958-1.7089977v-0.7861366
		c0-1.0253963-0.8544989-1.7089939-1.7089958-1.7089939H2.7089958C1.854498,17.4868279,1,18.1704254,1,19.1958218v0.7861366
		c0,0.8544979,0.6835986,1.7089977,1.7089958,1.7089977H6.4687872z"/>
	<path d="M29.2910042,28.8687382C30.3164024,28.8687382,31,28.0142403,31,27.1597424v-0.7861366
		c0-1.0253983-0.8544979-1.7089958-1.7089958-1.7089958H12.201045c-0.8544979,0-1.7089958,0.6835976-1.7089958,1.7089958v0.7861366
		c0,0.8544979,0.6835985,1.7089958,1.7089958,1.7089958H29.2910042z"/>
	<path d="M6.4687872,28.8687382c1.0253978,0,1.7089958-0.8544979,1.7089958-1.7089958v-0.7861366
		c0-1.0253983-0.8544989-1.7089958-1.7089958-1.7089958H2.7089958C1.854498,24.6646099,1,25.3482075,1,26.3736057v0.7861366
		c0,0.8544979,0.6835986,1.7089958,1.7089958,1.7089958H6.4687872z"/>
	<path d="M29.2910042,14.5131731C30.3164024,14.5131731,31,13.6586742,31,12.8041754v-0.7861357
		c0-1.0253973-0.8544979-1.7089958-1.7089958-1.7089958H12.201045c-0.8544979,0-1.7089958,0.6835985-1.7089958,1.7089958v0.7861357
		c0,0.8544989,0.6835985,1.7089977,1.7089958,1.7089977H29.2910042z"/>
	<path d="M6.4687872,14.5131731c1.0253978,0,1.7089958-0.8544989,1.7089958-1.7089977v-0.7861357
		c0-1.0253973-0.8544989-1.7089958-1.7089958-1.7089958H2.7089958C1.854498,10.3090439,1,10.9926424,1,12.0180397v0.7861357
		c0,0.8544989,0.6835986,1.7089977,1.7089958,1.7089977H6.4687872z"/>
	<path d="M29.2910042,7.3353896C30.3164024,7.3353896,31,6.4808912,31,5.6263924V4.8402567
		c0-1.0253978-0.8544979-1.7089953-1.7089958-1.7089953H12.201045c-0.8544979,0-1.7089958,0.6835976-1.7089958,1.7089953v0.7861357
		c0,0.8544989,0.6835985,1.7089972,1.7089958,1.7089972H29.2910042z"/>
	<path d="M6.4687872,7.3353896c1.0253978,0,1.7089958-0.8544984,1.7089958-1.7089972V4.8402567
		c0-1.0253978-0.8544989-1.7089953-1.7089958-1.7089953H2.7089958C1.854498,3.1312613,1,3.8148589,1,4.8402567v0.7861357
		c0,0.8544989,0.6835986,1.7089972,1.7089958,1.7089972H6.4687872z"/>
</g>
</svg>
