<?xml version="1.0" encoding="utf-8"?>
<!-- Generator: Adobe Illustrator 25.4.1, SVG Export Plug-In . SVG Version: 6.00 Build 0)  -->
<svg version="1.1" id="chevron_x5F_circle" xmlns="http://www.w3.org/2000/svg" xmlns:xlink="http://www.w3.org/1999/xlink" x="0px"
	 y="0px" viewBox="0 0 32 32" style="enable-background:new 0 0 32 32;" xml:space="preserve">
<path d="M16,31C7.7,31,1,24.3,1,16S7.7,1,16,1s15,6.7,15,15S24.3,31,16,31z M24.7,12.9l-1.4-1.4c-0.4-0.4-1-0.4-1.3,0l-6,6l-6-5.9
	c-0.4-0.4-1-0.4-1.3,0L7.3,13c-0.4,0.4-0.4,1,0,1.3l6.5,6.6c0.1,0.1,0.1,0.1,0.1,0.1l1.4,1.4c0.2,0.2,0.4,0.3,0.6,0.3
	c0.3,0,0.4-0.1,0.6-0.3l1.4-1.4c0.1,0,0.1,0,0.1,0l6.5-6.6C25.1,13.9,25.1,13.3,24.7,12.9z"/>
</svg>
