<?xml version="1.0" encoding="utf-8"?>
<!-- Generator: Adobe Illustrator 25.4.1, SVG Export Plug-In . SVG Version: 6.00 Build 0)  -->
<svg version="1.1" id="plus_x5F_circle" xmlns="http://www.w3.org/2000/svg" xmlns:xlink="http://www.w3.org/1999/xlink" x="0px"
	 y="0px" viewBox="0 0 32 32" style="enable-background:new 0 0 32 32;" xml:space="preserve">
<path d="M16,31C7.7,31,1,24.3,1,16S7.7,1,16,1s15,6.7,15,15S24.3,31,16,31z M24,14.1h-6.1V8c0-0.5-0.4-1-1-1H15c-0.5,0-1,0.4-1,1
	v6.1H8c-0.5,0-1,0.4-1,1V17c0,0.5,0.4,1,1,1h6.1v6c0,0.6,0.5,1,1,1H17c0.6,0,1-0.5,1-1v-6.1h6c0.6,0,1-0.5,1-1V15
	C25,14.5,24.5,14.1,24,14.1z"/>
</svg>
