<?xml version="1.0" encoding="utf-8"?>
<!-- Generator: Adobe Illustrator 25.4.1, SVG Export Plug-In . SVG Version: 6.00 Build 0)  -->
<svg version="1.1" id="info_x5F_circle" xmlns="http://www.w3.org/2000/svg" xmlns:xlink="http://www.w3.org/1999/xlink" x="0px"
	 y="0px" viewBox="0 0 32 32" xml:space="preserve">
<path d="M16,31C7.6999998,31,1,24.2999992,1,16S7.6999998,1,16,1s15,6.6999998,15,15S24.2999992,31,16,31z M16,3.7
	C9.1999998,3.7,3.7,9.1999998,3.7,16S9.1999998,28.2999992,16,28.2999992S28.2999992,22.7999992,28.2999992,16
	S22.7999992,3.7,16,3.7z"/>
<path d="M18.2000008,18.2999992v-3.1999998c0-0.3999996-0.2999992-0.8000002-0.7999992-0.8000002h-2.8999996
	c-0.3999996,0-0.8000002,0.3000002-0.8000002,0.8000002v3.1999998v1.8999996v4.5
	c0,0.3999996,0.3000002,0.7999992,0.8000002,0.7999992h2.8999996c0.3999996,0,0.7999992-0.2999992,0.7999992-0.7999992v-4.5
	V18.2999992z M18.6000004,9.1000004c0-1.5-1.2000008-2.5999999-2.6000004-2.5999999s-2.6000004,1.2000003-2.6000004,2.5999999
	S14.5999994,11.7000008,16,11.7000008S18.6000004,10.6000004,18.6000004,9.1000004z"/>
</svg>
